<svg width="16" height="18" viewBox="0 0 16 18" xmlns="http://www.w3.org/2000/svg">
  <path d="M15 7.5H1C.7 7.5.5 7.3.5 7V5c0-.8.7-1.5 1.5-1.5h12c.8 0 1.5.7 1.5 1.5v2c0 .2-.2.5-.5.5zm-13.5-1h13V5c0-.3-.2-.5-.5-.5H2c-.3 0-.5.2-.5.5v1.5z"/>
  <path d="M12 17.5H4c-1.4 0-2.5-1.1-2.5-2.5V7c0-.3.2-.5.5-.5s.5.2.5.5v8c0 .8.7 1.5 1.5 1.5h8c.8 0 1.5-.7 1.5-1.5V7c0-.3.2-.5.5-.5s.5.2.5.5v8c0 1.4-1.1 2.5-2.5 2.5zM10.5 4h-1V2c0-.3-.2-.5-.5-.5H7c-.3 0-.5.2-.5.5v2h-1V2c0-.8.7-1.5 1.5-1.5h2c.8 0 1.5.7 1.5 1.5v2z"/>
  <path d="M5 14.5c-.3 0-.5-.2-.5-.5v-4c0-.3.2-.5.5-.5s.5.2.5.5v4c0 .3-.2.5-.5.5zm3 0c-.3 0-.5-.2-.5-.5v-4c0-.3.2-.5.5-.5s.5.2.5.5v4c0 .3-.2.5-.5.5zm3 0c-.3 0-.5-.2-.5-.5v-4c0-.3.2-.5.5-.5s.5.2.5.5v4c0 .3-.2.5-.5.5z"/>
</svg>
