<svg width="16" height="16" viewBox="0 0 16 16" xmlns="http://www.w3.org/2000/svg">
  <path d="M13.1 6.6c-.1 0-.3 0-.4-.1L9.5 3.3c-.1-.1-.1-.2-.1-.4s.1-.3.1-.4l1.3-1.3c.8-.8 2.1-.8 2.8 0l1.1 1.1c.8.8.8 2.1 0 2.8l-1.3 1.3c0 .2-.2.2-.3.2zm-2.5-3.7l2.5 2.5 1-1c.4-.4.4-1 0-1.4L13 1.9c-.4-.4-1-.4-1.4 0l-1 1z"/>
  <path d="M.5 16c-.1 0-.3-.1-.4-.1-.1-.2-.1-.3-.1-.5l.6-3.8c0-.1.1-.2.1-.3l8.8-8.8c.2-.2.5-.2.7 0l3.2 3.2c.1.1.1.2.1.4s-.1.3-.1.4l-8.8 8.8c-.1.1-.2.1-.3.1L.5 16c.1 0 0 0 0 0zm1.1-4.1l-.5 3 3-.5 8.3-8.3-2.5-2.5-8.3 8.3z"/>
  <path d="M5.2 14.5c-.1 0-.3 0-.4-.1l-3.2-3.2c-.2-.2-.2-.5 0-.7.2-.2.5-.2.7 0l3.2 3.2c.2.2.2.5 0 .7 0 0-.1.1-.3.1z"/>
</svg>
