<svg width="23" height="24" viewBox="0 0 23 24" xmlns="http://www.w3.org/2000/svg">
  <g fill="#FFF" opacity=".8">
    <path d="M7.33 23.294c-2.4 0-4.66-1.27-6.071-3.247C-.294 17.647-.294 14.4 1.54 12c1.413-1.835 3.39-2.965 5.79-2.965.847 0 1.836.141 2.683.565l3.53-3.53-1.554-1.552c-.847-.847-.847-2.118 0-2.824l1.13-1.13c.706-.705 2.117-.705 2.823 0l1.553 1.554.565-.565c.706-.706 2.117-.706 2.823 0l1.13 1.13c.847.846.847 2.117 0 2.823l-8.047 8.047c.988 2.682.423 5.647-1.553 7.623-1.412 1.412-3.106 2.118-5.083 2.118zm0-12.847c-1.836 0-3.53.847-4.66 2.4-1.411 1.835-1.411 4.518-.14 6.494 1.129 1.694 2.823 2.683 4.8 2.683a5.654 5.654 0 0 0 4.094-1.695c1.694-1.694 2.117-4.376 1.129-6.494-.141-.282-.141-.564.141-.847l8.47-8.47c.283-.283.283-.706 0-.847l-1.129-1.13c-.282-.282-.706-.282-.847 0l-1.13 1.13a.682.682 0 0 1-.987 0l-2.26-2.26c-.282-.282-.705-.282-.846 0l-1.13 1.13c-.282.283-.282.706 0 .847l2.118 2.118c.141.141.141.282.141.565 0 .282-.141.423-.141.564l-4.377 4.377c-.14.282-.564.282-.847.14-.705-.564-1.553-.705-2.4-.705z"/>
    <path d="M7.33 18.918c-.706 0-1.412-.283-1.977-.847-.565-.565-.847-1.271-.847-1.977 0-.706.282-1.412.847-1.976 1.13-1.13 2.965-1.13 3.953 0 .565.564.847 1.27.847 1.976s-.282 1.412-.847 1.977c-.565.564-1.27.847-1.977.847zm0-4.236c-.424 0-.706.142-.989.424-.282.282-.423.565-.423.988 0 .424.14.706.423.988a1.365 1.365 0 0 0 1.977 0c.282-.282.423-.564.423-.988 0-.423-.141-.706-.423-.988-.283-.282-.565-.424-.989-.424z"/>
  </g>
</svg>
