<svg width="23" height="23" viewBox="0 0 23 23" xmlns="http://www.w3.org/2000/svg">
  <path d="M17.28 16.56c-.144 0-.432 0-.576-.144a.696.696 0 0 1 0-1.008l3.744-3.744-3.744-3.744a.696.696 0 0 1 0-1.008.696.696 0 0 1 1.008 0l4.32 4.32a.696.696 0 0 1 0 1.008l-4.32 4.32h-.432z"/>
  <path d="M20.88 12.24H9.36c-.432 0-.72-.288-.72-.72s.288-.72.72-.72h11.52c.432 0 .72.288.72.72s-.288.72-.72.72z"/>
  <path d="M12.96 22.32H4.32a3.565 3.565 0 0 1-3.6-3.6V4.32c0-2.016 1.584-3.6 3.6-3.6h8.64c.432 0 .72.288.72.72s-.288.72-.72.72H4.32c-1.152 0-2.16 1.008-2.16 2.16v14.4c0 1.152 1.008 2.16 2.16 2.16h8.64c.432 0 .72.288.72.72s-.288.72-.72.72z"/>
</svg>
