<svg width="24" height="24" viewBox="0 0 24 24" xmlns="http://www.w3.org/2000/svg">
  <g fill="#FFF" fill-rule="nonzero" opacity=".8">
    <path d="M12 15.333A3.301 3.301 0 0 1 8.667 12 3.301 3.301 0 0 1 12 8.667 3.301 3.301 0 0 1 15.333 12 3.301 3.301 0 0 1 12 15.333zM12 10c-1.067 0-2 .933-2 2s.933 2 2 2 2-.933 2-2-.933-2-2-2z"/>
    <path d="M12.933 23.333H11.2c-.8 0-1.6-.666-1.6-1.6V20.4c-.533-.133-1.067-.4-1.6-.667h-.267l-.933.934c-.533.533-1.6.533-2.267 0L3.2 19.333c-.667-.666-.667-1.6 0-2.266l.933-.934c.134-.133 0-.266 0-.266-.266-.4-.4-.934-.533-1.334 0-.133-.133-.133-.267-.133h-1.2c-.8 0-1.6-.667-1.6-1.6v-1.733c0-.8.667-1.6 1.6-1.6h1.2c.134 0 .134-.134.267-.134C3.733 8.8 4 8.4 4.133 8v-.267L3.2 6.8c-.667-.667-.667-1.6 0-2.267L4.533 3.2c.534-.533 1.6-.533 2.267 0l.933.933c.134.134.134.134.267 0 .4-.266.933-.4 1.333-.533.134 0 .134-.133.134-.267v-1.2c0-.8.666-1.6 1.6-1.6H12.8c.8 0 1.6.667 1.6 1.6v1.2c0 .134.133.134.133.267.4.133.934.4 1.334.533h.266l.934-.933c.533-.533 1.6-.533 2.266 0l1.334 1.333c.666.667.666 1.6 0 2.267l-.934.933c-.133.134 0 .267 0 .267.267.4.4.933.534 1.333 0 .134.133.134.266.134h1.2c.8 0 1.6.666 1.6 1.6V12.8c0 .8-.666 1.6-1.6 1.6h-1.2c-.133 0-.133.133-.266.133-.134.534-.4.934-.534 1.334v.266l.934.934c.666.666.666 1.6 0 2.266l-1.334 1.334c-.533.533-1.6.533-2.266 0l-.934-.934c-.133-.133-.133-.133-.266 0-.4.267-.934.4-1.334.534-.133 0-.133.133-.133.266v1.2c0 .934-.667 1.6-1.467 1.6zM7.867 18.4c.266 0 .533 0 .8.133.533.267 1.2.534 1.733.667.267.133.533.4.533.667v1.866c0 .134.134.267.267.267h1.733a.287.287 0 0 0 .267-.267v-1.2c0-.666.4-1.333 1.067-1.466.4-.134.8-.267 1.2-.534.666-.266 1.333-.266 1.866.267l.934.933c.133.134.266.134.266 0l1.334-1.333c.133-.133.133-.267 0-.267l-.934-.933c-.533-.533-.533-1.2-.266-1.867.133-.4.4-.8.533-1.2.267-.666.8-1.066 1.467-1.066h1.2a.287.287 0 0 0 .266-.267v-1.733a.287.287 0 0 0-.266-.267h-1.2c-.667 0-1.334-.4-1.467-1.067-.133-.4-.267-.8-.533-1.2-.267-.666-.267-1.333.266-1.866l.934-.934c.133-.133.133-.266 0-.266l-1.334-1.334c-.133-.133-.266-.133-.266 0l-.934.934c-.533.4-1.2.533-1.866.266-.4-.133-.8-.4-1.2-.533C13.6 4.533 13.2 4 13.2 3.333v-1.2a.287.287 0 0 0-.267-.266H11.2a.287.287 0 0 0-.267.266v1.2c0 .667-.4 1.334-1.066 1.467-.4.133-.8.267-1.2.533C8 5.6 7.333 5.6 6.8 5.067l-.933-.934C5.733 4 5.6 4 5.6 4.133L4.267 5.467c-.134.133-.134.266 0 .266l.933.934c.533.533.533 1.2.267 1.866-.134.4-.4.8-.534 1.2-.266.667-.8 1.067-1.466 1.067h-1.2a.287.287 0 0 0-.267.267V12.8c0 .133.133.267.267.267h1.2c.666 0 1.333.4 1.466 1.066.134.4.267.8.534 1.2.266.667.266 1.334-.267 1.867l-.933.933c-.134.134-.134.267 0 .267L5.6 19.733c.133.134.267.134.267 0L6.8 18.8c.267-.267.667-.4 1.067-.4z"/>
  </g>
</svg>
