<svg width="21" height="21" viewBox="0 0 21 21" xmlns="http://www.w3.org/2000/svg">
  <g fill="#FFF" fill-rule="nonzero" opacity=".8">
    <path d="M2.683 13.3c-.233 0-.466-.117-.583-.467a8.881 8.881 0 0 1-.35-2.45c0-4.783 3.967-8.75 8.75-8.75.817 0 1.633.117 2.45.35.35.117.467.467.35.7-.117.35-.467.467-.7.35-.7-.233-1.4-.35-2.1-.35a7.568 7.568 0 0 0-7.583 7.584c0 .7.116 1.4.35 2.1.116.35-.117.583-.35.7-.117.233-.234.233-.234.233zM9.8 18.083h.7c4.2 0 7.583-3.383 7.583-7.583v-.7l.35-2.217c.234 0 .467.234.467.467.233.817.35 1.633.35 2.45 0 4.783-3.967 8.75-8.75 8.75a8.881 8.881 0 0 1-2.45-.35.91.91 0 0 1-.467-.467l2.217-.35z"/>
    <path d="M3.733 20.417c-.933 0-1.75-.234-2.216-.817-1.284-1.283-1.05-3.85.7-7.117a.642.642 0 0 1 .583-.35c.233 0 .467.234.467.467.7 2.45 2.683 4.433 5.133 5.133a.91.91 0 0 1 .467.467.642.642 0 0 1-.35.583c-1.867 1.05-3.5 1.634-4.784 1.634zm-1.166-6.184c-.934 2.1-1.05 3.85-.35 4.55.7.7 2.45.584 4.55-.35-1.867-.933-3.267-2.333-4.2-4.2zM18.317 8.867c-.35 0-.467-.234-.584-.467-.7-2.45-2.683-4.433-5.133-5.133a.91.91 0 0 1-.467-.467c0-.233.117-.467.35-.583 3.15-1.75 5.834-1.984 7.117-.7 1.283 1.283 1.05 3.85-.7 7.116a.891.891 0 0 1-.583.234zm-4.084-6.3a8.198 8.198 0 0 1 4.2 4.2c.934-2.1 1.05-3.85.35-4.55-.816-.7-2.45-.584-4.55.35z"/>
    <path d="M18.9 8.05v.467c-1.05 1.983-2.683 3.966-4.55 5.833s-3.85 3.383-5.833 4.55c-.117 0-.234.117-.234.117h-.116l.116-1.167a28.123 28.123 0 0 0 9.567-9.567l1.05-.233z"/>
  </g>
</svg>
