<svg width="22" height="22" viewBox="0 0 22 22" xmlns="http://www.w3.org/2000/svg">
  <g fill="#FFF" opacity=".8">
    <path d="M9.411 21.389c-.367 0-.733-.122-.978-.367L1.1 13.69c-.244-.245-.367-.611-.367-.978s.123-.733.367-.978L11.733 1.1c.245-.244.611-.367.978-.367h7.333c.734 0 1.345.611 1.345 1.345V9.41c0 .367-.122.733-.367.978L10.39 21.022c-.367.245-.733.367-.978.367zM12.59 1.833L1.833 12.59v.244L9.29 20.29h.122L20.044 9.656V2.2c0-.122 0-.122-.122-.122H12.59v-.245z"/>
    <path d="M16.5 6.718c-.367 0-.611-.122-.856-.366a1.178 1.178 0 0 1 0-1.708 1.183 1.183 0 0 1 1.712 0 1.18 1.18 0 0 1 0 1.708c-.245.244-.49.366-.856.366z"/>
  </g>
</svg>
