<svg xmlns="http://www.w3.org/2000/svg" xmlns:xlink="http://www.w3.org/1999/xlink" style="width: 0; height: 0; visibility: hidden; position: absolute;" aria-hidden="true"><symbol  viewBox='0 0 13 6' id='icon-arrow-down'>
    
  <path d="M6.55 6c-.7 0-1.3-.293-1.8-.683L.15.83a.464.464 0 0 1 0-.683c.2-.195.5-.195.7 0l4.6 4.488c.6.586 1.5.586 2.1 0l4.6-4.488c.2-.195.5-.195.7 0 .2.195.2.488 0 .683l-4.6 4.488c-.4.39-1 .683-1.7.683z"></path>

  </symbol><symbol  viewBox='0 0 16 18' id='icon-delete'>
    
  <g fill="#282828">
    <path d="M15 7.5H1C.7 7.5.5 7.3.5 7V5c0-.8.7-1.5 1.5-1.5h12c.8 0 1.5.7 1.5 1.5v2c0 .2-.2.5-.5.5zm-13.5-1h13V5c0-.3-.2-.5-.5-.5H2c-.3 0-.5.2-.5.5v1.5z"></path>
    <path d="M12 17.5H4c-1.4 0-2.5-1.1-2.5-2.5V7c0-.3.2-.5.5-.5s.5.2.5.5v8c0 .8.7 1.5 1.5 1.5h8c.8 0 1.5-.7 1.5-1.5V7c0-.3.2-.5.5-.5s.5.2.5.5v8c0 1.4-1.1 2.5-2.5 2.5zM10.5 4h-1V2c0-.3-.2-.5-.5-.5H7c-.3 0-.5.2-.5.5v2h-1V2c0-.8.7-1.5 1.5-1.5h2c.8 0 1.5.7 1.5 1.5v2z"></path>
    <path d="M5 14.5c-.3 0-.5-.2-.5-.5v-4c0-.3.2-.5.5-.5s.5.2.5.5v4c0 .3-.2.5-.5.5zm3 0c-.3 0-.5-.2-.5-.5v-4c0-.3.2-.5.5-.5s.5.2.5.5v4c0 .3-.2.5-.5.5zm3 0c-.3 0-.5-.2-.5-.5v-4c0-.3.2-.5.5-.5s.5.2.5.5v4c0 .3-.2.5-.5.5z"></path>
  </g>

  </symbol><symbol  viewBox='0 0 16 16' id='icon-edit'>
    
  <g fill="#282828">
    <path d="M13.1 6.6c-.1 0-.3 0-.4-.1L9.5 3.3c-.1-.1-.1-.2-.1-.4s.1-.3.1-.4l1.3-1.3c.8-.8 2.1-.8 2.8 0l1.1 1.1c.8.8.8 2.1 0 2.8l-1.3 1.3c0 .2-.2.2-.3.2zm-2.5-3.7l2.5 2.5 1-1c.4-.4.4-1 0-1.4L13 1.9c-.4-.4-1-.4-1.4 0l-1 1z"></path>
    <path d="M.5 16c-.1 0-.3-.1-.4-.1-.1-.2-.1-.3-.1-.5l.6-3.8c0-.1.1-.2.1-.3l8.8-8.8c.2-.2.5-.2.7 0l3.2 3.2c.1.1.1.2.1.4s-.1.3-.1.4l-8.8 8.8c-.1.1-.2.1-.3.1L.5 16c.1 0 0 0 0 0zm1.1-4.1l-.5 3 3-.5 8.3-8.3-2.5-2.5-8.3 8.3z"></path>
    <path d="M5.2 14.5c-.1 0-.3 0-.4-.1l-3.2-3.2c-.2-.2-.2-.5 0-.7.2-.2.5-.2.7 0l3.2 3.2c.2.2.2.5 0 .7 0 0-.1.1-.3.1z"></path>
  </g>

  </symbol><symbol  viewBox='0 0 24 24' id='icon-gear'>
    
  <g fill="#FFF" opacity=".8">
    <path d="M12 15.333A3.301 3.301 0 0 1 8.667 12 3.301 3.301 0 0 1 12 8.667 3.301 3.301 0 0 1 15.333 12 3.301 3.301 0 0 1 12 15.333zM12 10c-1.067 0-2 .933-2 2s.933 2 2 2 2-.933 2-2-.933-2-2-2z"></path>
    <path d="M12.933 23.333H11.2c-.8 0-1.6-.666-1.6-1.6V20.4c-.533-.133-1.067-.4-1.6-.667h-.267l-.933.934c-.533.533-1.6.533-2.267 0L3.2 19.333c-.667-.666-.667-1.6 0-2.266l.933-.934c.134-.133 0-.266 0-.266-.266-.4-.4-.934-.533-1.334 0-.133-.133-.133-.267-.133h-1.2c-.8 0-1.6-.667-1.6-1.6v-1.733c0-.8.667-1.6 1.6-1.6h1.2c.134 0 .134-.134.267-.134C3.733 8.8 4 8.4 4.133 8v-.267L3.2 6.8c-.667-.667-.667-1.6 0-2.267L4.533 3.2c.534-.533 1.6-.533 2.267 0l.933.933c.134.134.134.134.267 0 .4-.266.933-.4 1.333-.533.134 0 .134-.133.134-.267v-1.2c0-.8.666-1.6 1.6-1.6H12.8c.8 0 1.6.667 1.6 1.6v1.2c0 .134.133.134.133.267.4.133.934.4 1.334.533h.266l.934-.933c.533-.533 1.6-.533 2.266 0l1.334 1.333c.666.667.666 1.6 0 2.267l-.934.933c-.133.134 0 .267 0 .267.267.4.4.933.534 1.333 0 .134.133.134.266.134h1.2c.8 0 1.6.666 1.6 1.6V12.8c0 .8-.666 1.6-1.6 1.6h-1.2c-.133 0-.133.133-.266.133-.134.534-.4.934-.534 1.334v.266l.934.934c.666.666.666 1.6 0 2.266l-1.334 1.334c-.533.533-1.6.533-2.266 0l-.934-.934c-.133-.133-.133-.133-.266 0-.4.267-.934.4-1.334.534-.133 0-.133.133-.133.266v1.2c0 .934-.667 1.6-1.467 1.6zM7.867 18.4c.266 0 .533 0 .8.133.533.267 1.2.534 1.733.667.267.133.533.4.533.667v1.866c0 .134.134.267.267.267h1.733a.287.287 0 0 0 .267-.267v-1.2c0-.666.4-1.333 1.067-1.466.4-.134.8-.267 1.2-.534.666-.266 1.333-.266 1.866.267l.934.933c.133.134.266.134.266 0l1.334-1.333c.133-.133.133-.267 0-.267l-.934-.933c-.533-.533-.533-1.2-.266-1.867.133-.4.4-.8.533-1.2.267-.666.8-1.066 1.467-1.066h1.2a.287.287 0 0 0 .266-.267v-1.733a.287.287 0 0 0-.266-.267h-1.2c-.667 0-1.334-.4-1.467-1.067-.133-.4-.267-.8-.533-1.2-.267-.666-.267-1.333.266-1.866l.934-.934c.133-.133.133-.266 0-.266l-1.334-1.334c-.133-.133-.266-.133-.266 0l-.934.934c-.533.4-1.2.533-1.866.266-.4-.133-.8-.4-1.2-.533C13.6 4.533 13.2 4 13.2 3.333v-1.2a.287.287 0 0 0-.267-.266H11.2a.287.287 0 0 0-.267.266v1.2c0 .667-.4 1.334-1.066 1.467-.4.133-.8.267-1.2.533C8 5.6 7.333 5.6 6.8 5.067l-.933-.934C5.733 4 5.6 4 5.6 4.133L4.267 5.467c-.134.133-.134.266 0 .266l.933.934c.533.533.533 1.2.267 1.866-.134.4-.4.8-.534 1.2-.266.667-.8 1.067-1.466 1.067h-1.2a.287.287 0 0 0-.267.267V12.8c0 .133.133.267.267.267h1.2c.666 0 1.333.4 1.466 1.066.134.4.267.8.534 1.2.266.667.266 1.334-.267 1.867l-.933.933c-.134.134-.134.267 0 .267L5.6 19.733c.133.134.267.134.267 0L6.8 18.8c.267-.267.667-.4 1.067-.4z"></path>
  </g>

  </symbol><symbol  viewBox='0 0 23 24' id='icon-key'>
    
  <g fill="#FFF" opacity=".8">
    <path d="M7.33 23.294c-2.4 0-4.66-1.27-6.071-3.247C-.294 17.647-.294 14.4 1.54 12c1.413-1.835 3.39-2.965 5.79-2.965.847 0 1.836.141 2.683.565l3.53-3.53-1.554-1.552c-.847-.847-.847-2.118 0-2.824l1.13-1.13c.706-.705 2.117-.705 2.823 0l1.553 1.554.565-.565c.706-.706 2.117-.706 2.823 0l1.13 1.13c.847.846.847 2.117 0 2.823l-8.047 8.047c.988 2.682.423 5.647-1.553 7.623-1.412 1.412-3.106 2.118-5.083 2.118zm0-12.847c-1.836 0-3.53.847-4.66 2.4-1.411 1.835-1.411 4.518-.14 6.494 1.129 1.694 2.823 2.683 4.8 2.683a5.654 5.654 0 0 0 4.094-1.695c1.694-1.694 2.117-4.376 1.129-6.494-.141-.282-.141-.564.141-.847l8.47-8.47c.283-.283.283-.706 0-.847l-1.129-1.13c-.282-.282-.706-.282-.847 0l-1.13 1.13a.682.682 0 0 1-.987 0l-2.26-2.26c-.282-.282-.705-.282-.846 0l-1.13 1.13c-.282.283-.282.706 0 .847l2.118 2.118c.141.141.141.282.141.565 0 .282-.141.423-.141.564l-4.377 4.377c-.14.282-.564.282-.847.14-.705-.564-1.553-.705-2.4-.705z"></path>
    <path d="M7.33 18.918c-.706 0-1.412-.283-1.977-.847-.565-.565-.847-1.271-.847-1.977 0-.706.282-1.412.847-1.976 1.13-1.13 2.965-1.13 3.953 0 .565.564.847 1.27.847 1.976s-.282 1.412-.847 1.977c-.565.564-1.27.847-1.977.847zm0-4.236c-.424 0-.706.142-.989.424-.282.282-.423.565-.423.988 0 .424.14.706.423.988a1.365 1.365 0 0 0 1.977 0c.282-.282.423-.564.423-.988 0-.423-.141-.706-.423-.988-.283-.282-.565-.424-.989-.424z"></path>
  </g>

  </symbol><symbol  viewBox='0 0 21 21' id='icon-planet'>
    
  <g fill="#FFF" opacity=".8">
    <path d="M2.683 13.3c-.233 0-.466-.117-.583-.467a8.881 8.881 0 0 1-.35-2.45c0-4.783 3.967-8.75 8.75-8.75.817 0 1.633.117 2.45.35.35.117.467.467.35.7-.117.35-.467.467-.7.35-.7-.233-1.4-.35-2.1-.35a7.568 7.568 0 0 0-7.583 7.584c0 .7.116 1.4.35 2.1.116.35-.117.583-.35.7-.117.233-.234.233-.234.233zM9.8 18.083h.7c4.2 0 7.583-3.383 7.583-7.583v-.7l.35-2.217c.234 0 .467.234.467.467.233.817.35 1.633.35 2.45 0 4.783-3.967 8.75-8.75 8.75a8.881 8.881 0 0 1-2.45-.35.91.91 0 0 1-.467-.467l2.217-.35z"></path>
    <path d="M3.733 20.417c-.933 0-1.75-.234-2.216-.817-1.284-1.283-1.05-3.85.7-7.117a.642.642 0 0 1 .583-.35c.233 0 .467.234.467.467A7.561 7.561 0 0 0 8.4 17.733a.91.91 0 0 1 .467.467.642.642 0 0 1-.35.583c-1.867 1.05-3.5 1.634-4.784 1.634zm-1.166-6.184c-.934 2.1-1.05 3.85-.35 4.55.7.7 2.45.584 4.55-.35-1.867-.933-3.267-2.333-4.2-4.2zm15.75-5.366c-.35 0-.467-.234-.584-.467A7.561 7.561 0 0 0 12.6 3.267a.91.91 0 0 1-.467-.467c0-.233.117-.467.35-.583 3.15-1.75 5.834-1.984 7.117-.7 1.283 1.283 1.05 3.85-.7 7.116a.891.891 0 0 1-.583.234zm-4.084-6.3a8.198 8.198 0 0 1 4.2 4.2c.934-2.1 1.05-3.85.35-4.55-.816-.7-2.45-.584-4.55.35z"></path>
    <path d="M18.9 8.05v.467c-1.05 1.983-2.683 3.966-4.55 5.833s-3.85 3.383-5.833 4.55c-.117 0-.234.117-.234.117h-.116l.116-1.167a28.123 28.123 0 0 0 9.567-9.567l1.05-.233z"></path>
  </g>

  </symbol><symbol  viewBox='0 0 24 24' id='icon-plus'>
    
  <g fill="#FFF" opacity=".8">
    <path d="M23.023 12.918H.98c-.551 0-.919-.367-.919-.918s.368-.918.919-.918h22.043c.55 0 .918.367.918.918s-.367.918-.918.918z"></path>
    <path d="M12 23.939c-.551 0-.918-.368-.918-.919V.98c0-.551.367-.919.918-.919s.918.368.918.919v22.04c0 .551-.367.919-.918.919z"></path>
  </g>

  </symbol><symbol  viewBox='0 0 24 23' id='icon-search'>
    
  <g fill="#FBF9F9" opacity=".8">
    <path d="M9.103 17.6C4.138 17.6 0 13.6 0 8.8 0 4 4.138 0 9.103 0c4.966 0 9.104 4 9.104 8.8 0 4.8-4.138 8.8-9.104 8.8zm0-16c-4.137 0-7.448 3.2-7.448 7.2S4.965 16 9.103 16s7.449-3.2 7.449-7.2-3.31-7.2-7.449-7.2z"></path>
    <path d="M15.724 14.08l7.283 7.04c.33.32.33.8 0 1.12-.166.16-.497.16-.662.16-.166 0-.497 0-.662-.16L14.4 15.2l1.324-1.12z"></path>
  </g>

  </symbol><symbol  viewBox='0 0 22 22' id='icon-tag'>
    
  <g fill="#FFF" opacity=".8">
    <path d="M9.411 21.389c-.367 0-.733-.122-.978-.367L1.1 13.69c-.244-.245-.367-.611-.367-.978s.123-.733.367-.978L11.733 1.1c.245-.244.611-.367.978-.367h7.333c.734 0 1.345.611 1.345 1.345V9.41c0 .367-.122.733-.367.978L10.39 21.022c-.367.245-.733.367-.978.367zM12.59 1.833L1.833 12.59v.244L9.29 20.29h.122L20.044 9.656V2.2c0-.122 0-.122-.122-.122H12.59v-.245z"></path>
    <path d="M16.5 6.718c-.367 0-.611-.122-.856-.366a1.178 1.178 0 0 1 0-1.708 1.183 1.183 0 0 1 1.712 0 1.18 1.18 0 0 1 0 1.708c-.245.244-.49.366-.856.366z"></path>
  </g>

  </symbol><symbol  viewBox='0 0 16 10' id='icon-tick'>
    
  <path d="M5.829 9.943c-.8 0-1.486-.343-2.058-.8L.686 6.057a.552.552 0 0 1 0-.8.552.552 0 0 1 .8 0L4.57 8.343c.343.343.8.457 1.258.457.457 0 .914-.229 1.257-.457L14.4.8a.552.552 0 0 1 .8 0 .552.552 0 0 1 0 .8L7.886 9.143c-.457.457-1.257.8-2.057.8z"></path>

  </symbol></svg>